<?xml version="1.0" standalone="no"?>
<!DOCTYPE svg PUBLIC "-//W3C//DTD SVG 20010904//EN"
 "http://www.w3.org/TR/2001/REC-SVG-20010904/DTD/svg10.dtd">
<svg version="1.0" xmlns="http://www.w3.org/2000/svg"
 width="768.000000pt" height="768.000000pt" viewBox="0 0 768.000000 768.000000"
 preserveAspectRatio="xMidYMid meet">
<metadata>
Created by potrace 1.11, written by Peter Selinger 2001-2013
</metadata>
<g transform="translate(0.000000,768.000000) scale(0.100000,-0.100000)"
fill="#000000" stroke="none">
<path d="M3399 7669 c-651 -37 -1278 -246 -1799 -600 -336 -228 -647 -537
-869 -864 -402 -592 -605 -1323 -562 -2022 49 -784 321 -1482 828 -2119 120
-150 441 -469 598 -594 72 -56 134 -106 138 -110 10 -9 -129 -204 -276 -388
-339 -425 -687 -745 -945 -866 -34 -16 -62 -33 -62 -37 0 -8 33 -21 110 -45
85 -26 361 -31 492 -9 379 63 864 285 1393 638 83 55 173 117 202 139 29 21
58 38 66 38 7 0 53 -14 103 -30 250 -86 533 -151 809 -187 196 -25 722 -25
905 1 832 116 1512 444 2055 991 504 507 822 1164 915 1891 25 196 28 593 5
789 -135 1159 -821 2200 -1860 2822 -561 336 -1176 525 -1830 563 -187 11
-217 11 -416 -1z m1789 -1625 c59 -32 128 -98 152 -145 10 -20 50 -66 88 -103
94 -92 133 -159 148 -255 8 -48 13 -183 13 -363 1 -271 0 -295 -24 -408 -28
-132 -44 -166 -118 -255 -28 -33 -57 -67 -64 -76 -7 -9 -36 -66 -63 -128 -54
-123 -96 -193 -160 -261 -72 -77 -153 -173 -215 -255 -58 -77 -159 -185 -240
-256 -22 -19 -80 -79 -129 -133 -84 -92 -147 -142 -353 -282 -37 -26 -100 -77
-138 -113 -78 -73 -147 -113 -280 -161 -104 -38 -158 -67 -235 -126 -66 -51
-120 -75 -260 -116 -103 -30 -111 -31 -360 -36 -273 -4 -374 5 -443 40 -22 11
-76 54 -120 97 -45 43 -104 93 -132 111 -65 44 -111 93 -141 152 -30 59 -30
81 0 193 43 160 62 191 173 287 54 47 116 107 138 133 118 142 145 164 277
230 70 35 143 67 161 70 25 5 68 -6 187 -50 85 -31 179 -63 209 -71 57 -16
212 -78 241 -97 15 -9 29 -1 81 47 44 39 102 77 186 119 131 65 174 99 230
184 35 53 138 153 157 153 30 0 132 124 153 185 21 59 81 158 131 215 29 32
52 65 52 72 0 8 -15 43 -34 78 -31 58 -93 233 -170 479 l-27 84 65 133 c84
174 95 188 209 284 54 45 133 122 175 172 86 100 112 117 257 164 124 40 162
42 223 8z"/>
</g>
</svg>
